<svg viewBox="0 0 29 29" xmlns="http://www.w3.org/2000/svg" shape-rendering="crispEdges" aria-hidden="true"><rect width="29" height="29" fill="#ffffff"/><g><rect x="0" y="0" width="7" height="7" fill="#1e293b"/><rect x="1" y="1" width="5" height="5" fill="#ffffff"/><rect x="2" y="2" width="3" height="3" fill="#1e293b"/><rect x="22" y="0" width="7" height="7" fill="#1e293b"/><rect x="23" y="1" width="5" height="5" fill="#ffffff"/><rect x="24" y="2" width="3" height="3" fill="#1e293b"/><rect x="0" y="22" width="7" height="7" fill="#1e293b"/><rect x="1" y="23" width="5" height="5" fill="#ffffff"/><rect x="2" y="24" width="3" height="3" fill="#1e293b"/><rect x="20" y="20" width="5" height="5" fill="#1e293b"/><rect x="21" y="21" width="3" height="3" fill="#ffffff"/><rect x="22" y="22" width="1" height="1" fill="#1e293b"/><rect x="8" y="6" width="1" height="1" fill="#1e293b"/><rect x="10" y="6" width="1" height="1" fill="#1e293b"/><rect x="12" y="6" width="1" height="1" fill="#1e293b"/><rect x="14" y="6" width="1" height="1" fill="#1e293b"/><rect x="16" y="6" width="1" height="1" fill="#1e293b"/><rect x="18" y="6" width="1" height="1" fill="#1e293b"/><rect x="20" y="6" width="1" height="1" fill="#1e293b"/><rect x="6" y="8" width="1" height="1" fill="#1e293b"/><rect x="6" y="10" width="1" height="1" fill="#1e293b"/><rect x="6" y="12" width="1" height="1" fill="#1e293b"/><rect x="6" y="14" width="1" height="1" fill="#1e293b"/><rect x="6" y="16" width="1" height="1" fill="#1e293b"/><rect x="6" y="18" width="1" height="1" fill="#1e293b"/><rect x="6" y="20" width="1" height="1" fill="#1e293b"/><rect x="8" y="0" width="1" height="1" fill="#1e293b"/><rect x="10" y="0" width="1" height="1" fill="#1e293b"/><rect x="11" y="0" width="1" height="1" fill="#1e293b"/><rect x="12" y="0" width="1" height="1" fill="#1e293b"/><rect x="14" y="0" width="1" height="1" fill="#1e293b"/><rect x="16" y="0" width="1" height="1" fill="#1e293b"/><rect x="17" y="0" width="1" height="1" fill="#1e293b"/><rect x="18" y="0" width="1" height="1" fill="#1e293b"/><rect x="20" y="0" width="1" height="1" fill="#1e293b"/><rect x="21" y="0" width="1" height="1" fill="#1e293b"/><rect x="8" y="1" width="1" height="1" fill="#1e293b"/><rect x="9" y="1" width="1" height="1" fill="#1e293b"/><rect x="11" y="1" width="1" height="1" fill="#1e293b"/><rect x="14" y="1" width="1" height="1" fill="#1e293b"/><rect x="15" y="1" width="1" height="1" fill="#1e293b"/><rect x="18" y="1" width="1" height="1" fill="#1e293b"/><rect x="20" y="1" width="1" height="1" fill="#1e293b"/><rect x="21" y="1" width="1" height="1" fill="#1e293b"/><rect x="8" y="2" width="1" height="1" fill="#1e293b"/><rect x="11" y="2" width="1" height="1" fill="#1e293b"/><rect x="12" y="2" width="1" height="1" fill="#1e293b"/><rect x="13" y="2" width="1" height="1" fill="#1e293b"/><rect x="16" y="2" width="1" height="1" fill="#1e293b"/><rect x="18" y="2" width="1" height="1" fill="#1e293b"/><rect x="19" y="2" width="1" height="1" fill="#1e293b"/><rect x="21" y="2" width="1" height="1" fill="#1e293b"/><rect x="8" y="3" width="1" height="1" fill="#1e293b"/><rect x="9" y="3" width="1" height="1" fill="#1e293b"/><rect x="13" y="3" width="1" height="1" fill="#1e293b"/><rect x="14" y="3" width="1" height="1" fill="#1e293b"/><rect x="15" y="3" width="1" height="1" fill="#1e293b"/><rect x="17" y="3" width="1" height="1" fill="#1e293b"/><rect x="20" y="3" width="1" height="1" fill="#1e293b"/><rect x="21" y="3" width="1" height="1" fill="#1e293b"/><rect x="8" y="4" width="1" height="1" fill="#1e293b"/><rect x="10" y="4" width="1" height="1" fill="#1e293b"/><rect x="12" y="4" width="1" height="1" fill="#1e293b"/><rect x="14" y="4" width="1" height="1" fill="#1e293b"/><rect x="15" y="4" width="1" height="1" fill="#1e293b"/><rect x="16" y="4" width="1" height="1" fill="#1e293b"/><rect x="18" y="4" width="1" height="1" fill="#1e293b"/><rect x="20" y="4" width="1" height="1" fill="#1e293b"/><rect x="21" y="4" width="1" height="1" fill="#1e293b"/><rect x="8" y="5" width="1" height="1" fill="#1e293b"/><rect x="9" y="5" width="1" height="1" fill="#1e293b"/><rect x="10" y="5" width="1" height="1" fill="#1e293b"/><rect x="13" y="5" width="1" height="1" fill="#1e293b"/><rect x="16" y="5" width="1" height="1" fill="#1e293b"/><rect x="17" y="5" width="1" height="1" fill="#1e293b"/><rect x="19" y="5" width="1" height="1" fill="#1e293b"/><rect x="20" y="5" width="1" height="1" fill="#1e293b"/><rect x="21" y="5" width="1" height="1" fill="#1e293b"/><rect x="8" y="7" width="1" height="1" fill="#1e293b"/><rect x="10" y="7" width="1" height="1" fill="#1e293b"/><rect x="11" y="7" width="1" height="1" fill="#1e293b"/><rect x="14" y="7" width="1" height="1" fill="#1e293b"/><rect x="15" y="7" width="1" height="1" fill="#1e293b"/><rect x="16" y="7" width="1" height="1" fill="#1e293b"/><rect x="18" y="7" width="1" height="1" fill="#1e293b"/><rect x="21" y="7" width="1" height="1" fill="#1e293b"/><rect x="0" y="8" width="1" height="1" fill="#1e293b"/><rect x="1" y="8" width="1" height="1" fill="#1e293b"/><rect x="3" y="8" width="1" height="1" fill="#1e293b"/><rect x="7" y="8" width="1" height="1" fill="#1e293b"/><rect x="9" y="8" width="1" height="1" fill="#1e293b"/><rect x="13" y="8" width="1" height="1" fill="#1e293b"/><rect x="14" y="8" width="1" height="1" fill="#1e293b"/><rect x="17" y="8" width="1" height="1" fill="#1e293b"/><rect x="19" y="8" width="1" height="1" fill="#1e293b"/><rect x="20" y="8" width="1" height="1" fill="#1e293b"/><rect x="22" y="8" width="1" height="1" fill="#1e293b"/><rect x="23" y="8" width="1" height="1" fill="#1e293b"/><rect x="24" y="8" width="1" height="1" fill="#1e293b"/><rect x="1" y="9" width="1" height="1" fill="#1e293b"/><rect x="2" y="9" width="1" height="1" fill="#1e293b"/><rect x="4" y="9" width="1" height="1" fill="#1e293b"/><rect x="5" y="9" width="1" height="1" fill="#1e293b"/><rect x="8" y="9" width="1" height="1" fill="#1e293b"/><rect x="9" y="9" width="1" height="1" fill="#1e293b"/><rect x="10" y="9" width="1" height="1" fill="#1e293b"/><rect x="12" y="9" width="1" height="1" fill="#1e293b"/><rect x="15" y="9" width="1" height="1" fill="#1e293b"/><rect x="17" y="9" width="1" height="1" fill="#1e293b"/><rect x="18" y="9" width="1" height="1" fill="#1e293b"/><rect x="21" y="9" width="1" height="1" fill="#1e293b"/><rect x="24" y="9" width="1" height="1" fill="#1e293b"/><rect x="0" y="10" width="1" height="1" fill="#1e293b"/><rect x="2" y="10" width="1" height="1" fill="#1e293b"/><rect x="3" y="10" width="1" height="1" fill="#1e293b"/><rect x="8" y="10" width="1" height="1" fill="#1e293b"/><rect x="11" y="10" width="1" height="1" fill="#1e293b"/><rect x="13" y="10" width="1" height="1" fill="#1e293b"/><rect x="14" y="10" width="1" height="1" fill="#1e293b"/><rect x="15" y="10" width="1" height="1" fill="#1e293b"/><rect x="16" y="10" width="1" height="1" fill="#1e293b"/><rect x="19" y="10" width="1" height="1" fill="#1e293b"/><rect x="21" y="10" width="1" height="1" fill="#1e293b"/><rect x="22" y="10" width="1" height="1" fill="#1e293b"/><rect x="24" y="10" width="1" height="1" fill="#1e293b"/><rect x="1" y="11" width="1" height="1" fill="#1e293b"/><rect x="3" y="11" width="1" height="1" fill="#1e293b"/><rect x="4" y="11" width="1" height="1" fill="#1e293b"/><rect x="7" y="11" width="1" height="1" fill="#1e293b"/><rect x="9" y="11" width="1" height="1" fill="#1e293b"/><rect x="10" y="11" width="1" height="1" fill="#1e293b"/><rect x="12" y="11" width="1" height="1" fill="#1e293b"/><rect x="16" y="11" width="1" height="1" fill="#1e293b"/><rect x="17" y="11" width="1" height="1" fill="#1e293b"/><rect x="18" y="11" width="1" height="1" fill="#1e293b"/><rect x="20" y="11" width="1" height="1" fill="#1e293b"/><rect x="23" y="11" width="1" height="1" fill="#1e293b"/><rect x="24" y="11" width="1" height="1" fill="#1e293b"/><rect x="0" y="12" width="1" height="1" fill="#1e293b"/><rect x="1" y="12" width="1" height="1" fill="#1e293b"/><rect x="4" y="12" width="1" height="1" fill="#1e293b"/><rect x="8" y="12" width="1" height="1" fill="#1e293b"/><rect x="9" y="12" width="1" height="1" fill="#1e293b"/><rect x="12" y="12" width="1" height="1" fill="#1e293b"/><rect x="13" y="12" width="1" height="1" fill="#1e293b"/><rect x="15" y="12" width="1" height="1" fill="#1e293b"/><rect x="18" y="12" width="1" height="1" fill="#1e293b"/><rect x="20" y="12" width="1" height="1" fill="#1e293b"/><rect x="21" y="12" width="1" height="1" fill="#1e293b"/><rect x="23" y="12" width="1" height="1" fill="#1e293b"/><rect x="2" y="13" width="1" height="1" fill="#1e293b"/><rect x="3" y="13" width="1" height="1" fill="#1e293b"/><rect x="5" y="13" width="1" height="1" fill="#1e293b"/><rect x="7" y="13" width="1" height="1" fill="#1e293b"/><rect x="8" y="13" width="1" height="1" fill="#1e293b"/><rect x="11" y="13" width="1" height="1" fill="#1e293b"/><rect x="13" y="13" width="1" height="1" fill="#1e293b"/><rect x="15" y="13" width="1" height="1" fill="#1e293b"/><rect x="16" y="13" width="1" height="1" fill="#1e293b"/><rect x="19" y="13" width="1" height="1" fill="#1e293b"/><rect x="20" y="13" width="1" height="1" fill="#1e293b"/><rect x="22" y="13" width="1" height="1" fill="#1e293b"/><rect x="24" y="13" width="1" height="1" fill="#1e293b"/><rect x="0" y="14" width="1" height="1" fill="#1e293b"/><rect x="2" y="14" width="1" height="1" fill="#1e293b"/><rect x="4" y="14" width="1" height="1" fill="#1e293b"/><rect x="5" y="14" width="1" height="1" fill="#1e293b"/><rect x="9" y="14" width="1" height="1" fill="#1e293b"/><rect x="10" y="14" width="1" height="1" fill="#1e293b"/><rect x="12" y="14" width="1" height="1" fill="#1e293b"/><rect x="14" y="14" width="1" height="1" fill="#1e293b"/><rect x="17" y="14" width="1" height="1" fill="#1e293b"/><rect x="18" y="14" width="1" height="1" fill="#1e293b"/><rect x="20" y="14" width="1" height="1" fill="#1e293b"/><rect x="21" y="14" width="1" height="1" fill="#1e293b"/><rect x="24" y="14" width="1" height="1" fill="#1e293b"/><rect x="1" y="15" width="1" height="1" fill="#1e293b"/><rect x="3" y="15" width="1" height="1" fill="#1e293b"/><rect x="7" y="15" width="1" height="1" fill="#1e293b"/><rect x="9" y="15" width="1" height="1" fill="#1e293b"/><rect x="11" y="15" width="1" height="1" fill="#1e293b"/><rect x="12" y="15" width="1" height="1" fill="#1e293b"/><rect x="15" y="15" width="1" height="1" fill="#1e293b"/><rect x="16" y="15" width="1" height="1" fill="#1e293b"/><rect x="18" y="15" width="1" height="1" fill="#1e293b"/><rect x="21" y="15" width="1" height="1" fill="#1e293b"/><rect x="22" y="15" width="1" height="1" fill="#1e293b"/><rect x="0" y="16" width="1" height="1" fill="#1e293b"/><rect x="1" y="16" width="1" height="1" fill="#1e293b"/><rect x="4" y="16" width="1" height="1" fill="#1e293b"/><rect x="5" y="16" width="1" height="1" fill="#1e293b"/><rect x="7" y="16" width="1" height="1" fill="#1e293b"/><rect x="9" y="16" width="1" height="1" fill="#1e293b"/><rect x="10" y="16" width="1" height="1" fill="#1e293b"/><rect x="13" y="16" width="1" height="1" fill="#1e293b"/><rect x="15" y="16" width="1" height="1" fill="#1e293b"/><rect x="17" y="16" width="1" height="1" fill="#1e293b"/><rect x="18" y="16" width="1" height="1" fill="#1e293b"/><rect x="20" y="16" width="1" height="1" fill="#1e293b"/><rect x="23" y="16" width="1" height="1" fill="#1e293b"/><rect x="24" y="16" width="1" height="1" fill="#1e293b"/><rect x="3" y="17" width="1" height="1" fill="#1e293b"/><rect x="5" y="17" width="1" height="1" fill="#1e293b"/><rect x="8" y="17" width="1" height="1" fill="#1e293b"/><rect x="11" y="17" width="1" height="1" fill="#1e293b"/><rect x="12" y="17" width="1" height="1" fill="#1e293b"/><rect x="14" y="17" width="1" height="1" fill="#1e293b"/><rect x="16" y="17" width="1" height="1" fill="#1e293b"/><rect x="17" y="17" width="1" height="1" fill="#1e293b"/><rect x="20" y="17" width="1" height="1" fill="#1e293b"/><rect x="21" y="17" width="1" height="1" fill="#1e293b"/><rect x="23" y="17" width="1" height="1" fill="#1e293b"/><rect x="0" y="18" width="1" height="1" fill="#1e293b"/><rect x="2" y="18" width="1" height="1" fill="#1e293b"/><rect x="3" y="18" width="1" height="1" fill="#1e293b"/><rect x="4" y="18" width="1" height="1" fill="#1e293b"/><rect x="7" y="18" width="1" height="1" fill="#1e293b"/><rect x="9" y="18" width="1" height="1" fill="#1e293b"/><rect x="10" y="18" width="1" height="1" fill="#1e293b"/><rect x="12" y="18" width="1" height="1" fill="#1e293b"/><rect x="15" y="18" width="1" height="1" fill="#1e293b"/><rect x="17" y="18" width="1" height="1" fill="#1e293b"/><rect x="18" y="18" width="1" height="1" fill="#1e293b"/><rect x="21" y="18" width="1" height="1" fill="#1e293b"/><rect x="23" y="18" width="1" height="1" fill="#1e293b"/><rect x="24" y="18" width="1" height="1" fill="#1e293b"/><rect x="1" y="19" width="1" height="1" fill="#1e293b"/><rect x="2" y="19" width="1" height="1" fill="#1e293b"/><rect x="5" y="19" width="1" height="1" fill="#1e293b"/><rect x="8" y="19" width="1" height="1" fill="#1e293b"/><rect x="10" y="19" width="1" height="1" fill="#1e293b"/><rect x="13" y="19" width="1" height="1" fill="#1e293b"/><rect x="14" y="19" width="1" height="1" fill="#1e293b"/><rect x="16" y="19" width="1" height="1" fill="#1e293b"/><rect x="17" y="19" width="1" height="1" fill="#1e293b"/><rect x="19" y="19" width="1" height="1" fill="#1e293b"/><rect x="22" y="19" width="1" height="1" fill="#1e293b"/><rect x="24" y="19" width="1" height="1" fill="#1e293b"/><rect x="0" y="20" width="1" height="1" fill="#1e293b"/><rect x="3" y="20" width="1" height="1" fill="#1e293b"/><rect x="5" y="20" width="1" height="1" fill="#1e293b"/><rect x="9" y="20" width="1" height="1" fill="#1e293b"/><rect x="10" y="20" width="1" height="1" fill="#1e293b"/><rect x="12" y="20" width="1" height="1" fill="#1e293b"/><rect x="15" y="20" width="1" height="1" fill="#1e293b"/><rect x="17" y="20" width="1" height="1" fill="#1e293b"/><rect x="19" y="20" width="1" height="1" fill="#1e293b"/><rect x="1" y="21" width="1" height="1" fill="#1e293b"/><rect x="3" y="21" width="1" height="1" fill="#1e293b"/><rect x="4" y="21" width="1" height="1" fill="#1e293b"/><rect x="7" y="21" width="1" height="1" fill="#1e293b"/><rect x="9" y="21" width="1" height="1" fill="#1e293b"/><rect x="11" y="21" width="1" height="1" fill="#1e293b"/><rect x="12" y="21" width="1" height="1" fill="#1e293b"/><rect x="15" y="21" width="1" height="1" fill="#1e293b"/><rect x="16" y="21" width="1" height="1" fill="#1e293b"/><rect x="18" y="21" width="1" height="1" fill="#1e293b"/><rect x="8" y="22" width="1" height="1" fill="#1e293b"/><rect x="9" y="22" width="1" height="1" fill="#1e293b"/><rect x="11" y="22" width="1" height="1" fill="#1e293b"/><rect x="14" y="22" width="1" height="1" fill="#1e293b"/><rect x="16" y="22" width="1" height="1" fill="#1e293b"/><rect x="17" y="22" width="1" height="1" fill="#1e293b"/><rect x="19" y="22" width="1" height="1" fill="#1e293b"/><rect x="9" y="23" width="1" height="1" fill="#1e293b"/><rect x="10" y="23" width="1" height="1" fill="#1e293b"/><rect x="12" y="23" width="1" height="1" fill="#1e293b"/><rect x="15" y="23" width="1" height="1" fill="#1e293b"/><rect x="17" y="23" width="1" height="1" fill="#1e293b"/><rect x="18" y="23" width="1" height="1" fill="#1e293b"/><rect x="9" y="24" width="1" height="1" fill="#1e293b"/><rect x="11" y="24" width="1" height="1" fill="#1e293b"/><rect x="14" y="24" width="1" height="1" fill="#1e293b"/><rect x="15" y="24" width="1" height="1" fill="#1e293b"/><rect x="17" y="24" width="1" height="1" fill="#1e293b"/><rect x="19" y="24" width="1" height="1" fill="#1e293b"/><rect x="8" y="25" width="1" height="1" fill="#1e293b"/><rect x="9" y="25" width="1" height="1" fill="#1e293b"/><rect x="12" y="25" width="1" height="1" fill="#1e293b"/><rect x="14" y="25" width="1" height="1" fill="#1e293b"/><rect x="16" y="25" width="1" height="1" fill="#1e293b"/><rect x="17" y="25" width="1" height="1" fill="#1e293b"/><rect x="20" y="25" width="1" height="1" fill="#1e293b"/><rect x="21" y="25" width="1" height="1" fill="#1e293b"/><rect x="23" y="25" width="1" height="1" fill="#1e293b"/><rect x="9" y="26" width="1" height="1" fill="#1e293b"/><rect x="11" y="26" width="1" height="1" fill="#1e293b"/><rect x="12" y="26" width="1" height="1" fill="#1e293b"/><rect x="15" y="26" width="1" height="1" fill="#1e293b"/><rect x="16" y="26" width="1" height="1" fill="#1e293b"/><rect x="18" y="26" width="1" height="1" fill="#1e293b"/><rect x="20" y="26" width="1" height="1" fill="#1e293b"/><rect x="21" y="26" width="1" height="1" fill="#1e293b"/><rect x="24" y="26" width="1" height="1" fill="#1e293b"/><rect x="8" y="27" width="1" height="1" fill="#1e293b"/><rect x="10" y="27" width="1" height="1" fill="#1e293b"/><rect x="11" y="27" width="1" height="1" fill="#1e293b"/><rect x="14" y="27" width="1" height="1" fill="#1e293b"/><rect x="16" y="27" width="1" height="1" fill="#1e293b"/><rect x="18" y="27" width="1" height="1" fill="#1e293b"/><rect x="19" y="27" width="1" height="1" fill="#1e293b"/><rect x="21" y="27" width="1" height="1" fill="#1e293b"/><rect x="24" y="27" width="1" height="1" fill="#1e293b"/><rect x="8" y="28" width="1" height="1" fill="#1e293b"/><rect x="9" y="28" width="1" height="1" fill="#1e293b"/><rect x="12" y="28" width="1" height="1" fill="#1e293b"/><rect x="14" y="28" width="1" height="1" fill="#1e293b"/><rect x="16" y="28" width="1" height="1" fill="#1e293b"/><rect x="17" y="28" width="1" height="1" fill="#1e293b"/><rect x="20" y="28" width="1" height="1" fill="#1e293b"/><rect x="21" y="28" width="1" height="1" fill="#1e293b"/><rect x="23" y="28" width="1" height="1" fill="#1e293b"/><rect x="24" y="28" width="1" height="1" fill="#1e293b"/></g></svg>